<?xml version="1.0" encoding="utf-8"?>
<!-- Generator: Adobe Illustrator 22.0.0, SVG Export Plug-In . SVG Version: 6.00 Build 0)  -->
<svg version="1.1" id="Layer_1" xmlns="http://www.w3.org/2000/svg" xmlns:xlink="http://www.w3.org/1999/xlink" x="0px" y="0px"
	 viewBox="0 0 206.9 203.4" style="enable-background:new 0 0 206.9 203.4;" xml:space="preserve">
<style type="text/css">
	.st0{fill:#FDC536;}
	.st1{fill:#E65848;}
	.st2{fill:#FEE8AF;}
</style>
<g>
	<rect x="3.4" y="27.6" class="st0" width="200" height="172.4"/>
	<path class="st1" d="M41.4,3.5L41.4,3.5c13.3,0,24.1,10.8,24.1,24.1v0.3c0,6.4-2.5,12.5-7.1,17.1L41.4,62.1L24.3,45
		c-4.5-4.5-7.1-10.7-7.1-17.1v-0.3C17.2,14.3,28,3.5,41.4,3.5z"/>
	<path class="st2" d="M41.4,17.3L41.4,17.3c5.7,0,10.3,4.6,10.3,10.3l0,0c0,5.7-4.6,10.3-10.3,10.3l0,0c-5.7,0-10.3-4.6-10.3-10.3
		l0,0C31,21.9,35.7,17.3,41.4,17.3z"/>
	<path d="M82.7,24.2h-14C66.8,9.1,53.1-1.7,38,0.2C25.5,1.8,15.6,11.6,14,24.2H0v179.3h206.9V24.2H82.7L82.7,24.2z M200,31.1v41.4
		h-62.1V51.7H131v20.7H82.7V31.1H200z M168.6,154.7c-4.2-6.2-11.1-9.9-18.6-9.9h-12.1v-31h37.9v-6.9h-37.9V79.3H200v65.5h-13.8
		C179,144.8,172.3,148.6,168.6,154.7z M37.9,124.1h-31V79.3h31V124.1z M44.8,79.3h31v65.5H55.2c-5.7,0-10.3-4.6-10.3-10.3
		C44.8,134.5,44.8,79.3,44.8,79.3z M118.9,113.8H131v31h-12.1c-8.6,0-15.5-6.9-15.5-15.5S110.4,113.8,118.9,113.8z M131,106.9H82.7
		V79.3H131V106.9z M82.7,144.8v-31h20.1c-8.6,8.9-8.3,23.1,0.6,31.6c4.2,4,9.8,6.3,15.6,6.3H131v31H82.7V144.8z M137.9,151.7H150
		c8.6,0,15.5,6.9,15.5,15.5c0,8.6-6.9,15.5-15.5,15.5h-12.1V151.7z M41.4,6.9c11.4,0,20.7,9.3,20.7,20.7v0.3
		c0,5.5-2.2,10.8-6.1,14.6L41.4,57.2L26.7,42.6c-3.9-3.9-6.1-9.1-6.1-14.6v-0.3C20.7,16.2,30,6.9,41.4,6.9z M14,31.1
		c0.7,6.2,3.5,12,7.9,16.4L41.4,67l19.5-19.5c4.4-4.4,7.2-10.2,7.9-16.4h7.1v41.4h-69V31.1H14z M6.9,196.5V131h31v3.4
		c0,9.5,7.7,17.2,17.2,17.2h20.7v31H62.1c-8.8,0-16.6,5.5-19.5,13.8H6.9L6.9,196.5z M50.2,196.5c2.4-4.3,7-6.9,11.9-6.9H150
		c12.4,0,22.4-10,22.4-22.4c0-0.6,0-1.2-0.1-1.7h0.1c0-7.6,6.2-13.8,13.8-13.8H200v44.8L50.2,196.5L50.2,196.5z"/>
	<path d="M41.4,41.4c7.6,0,13.8-6.2,13.8-13.8S49,13.8,41.4,13.8S27.6,20,27.6,27.6S33.8,41.4,41.4,41.4z M41.4,20.7
		c3.8,0,6.9,3.1,6.9,6.9c0,3.8-3.1,6.9-6.9,6.9c-3.8,0-6.9-3.1-6.9-6.9S37.6,20.7,41.4,20.7z"/>
</g>
</svg>
